# xmcd CD database file
#
# Track frame offsets:
#	150
#	21450
#	41175
#	51075
#
# Disc length: 963 seconds
#
# Revision: 1
# Processed by: cddbd v1.5.1PL0 Copyright (c) Steve Scherf et al.
# Submitted via: freeDBTagger 0.5
#
DISCID=3303c104
DTITLE=Mi - サンセット
DYEAR=2005
DGENRE=misc
TTITLE0=サンセット
TTITLE1=愛する君のうた
TTITLE2=I Love Music♪II
TTITLE3=サンセット （instrumental）
EXTD=[Columbia] COCA-3006 05/09/14
EXTT0=
EXTT1=
EXTT2=
EXTT3=
PLAYORDER=
